<svg width="68" height="24" viewBox="0 0 68 24" fill="none" xmlns="http://www.w3.org/2000/svg">
<path d="M11.392 22.968C9.10932 22.9467 7.17865 22.5733 5.59999 21.848C4.02132 21.1227 2.82665 19.96 2.01599 18.36C1.20532 16.7387 0.799988 14.5947 0.799988 11.928C0.799988 9.60266 1.17332 7.59733 1.91999 5.91199C2.68799 4.22666 3.79732 2.92533 5.24799 2.00799C6.69865 1.06933 8.47999 0.599993 10.592 0.599993C12.448 0.599993 14.0693 0.86666 15.456 1.39999C16.8427 1.93333 17.9307 2.70133 18.72 3.70399C19.5307 4.68533 19.9787 5.85866 20.064 7.22399C20.1493 8.52533 19.9253 9.65599 19.392 10.616C18.88 11.576 18.112 12.4293 17.088 13.176C17.8347 13.304 18.5067 13.72 19.104 14.424C19.7227 15.128 20.032 15.9813 20.032 16.984C20.032 17.6667 19.8933 18.36 19.616 19.064C19.3387 19.768 18.8693 20.4187 18.208 21.016C17.568 21.6133 16.6827 22.0933 15.552 22.456C14.4427 22.7973 13.056 22.968 11.392 22.968ZM9.18399 11.032C9.63199 11.224 10.1653 11.32 10.784 11.32C11.4027 11.2987 11.9467 11.128 12.416 10.808C12.9067 10.488 13.152 9.99733 13.152 9.33599C13.152 8.84533 13.0027 8.45066 12.704 8.15199C12.4267 7.85333 12.0747 7.65066 11.648 7.54399C11.2213 7.41599 10.784 7.36266 10.336 7.38399C9.88799 7.40533 9.50399 7.50133 9.18399 7.67199C8.77865 7.86399 8.50132 8.19466 8.35199 8.66399C8.22399 9.13333 8.22399 9.60266 8.35199 10.072C8.50132 10.52 8.77865 10.84 9.18399 11.032ZM9.18399 18.52C9.63199 18.6907 10.1653 18.776 10.784 18.776C11.4027 18.7547 11.9467 18.6053 12.416 18.328C12.9067 18.0507 13.152 17.624 13.152 17.048C13.152 16.6213 13.0027 16.28 12.704 16.024C12.4267 15.7467 12.0747 15.5547 11.648 15.448C11.2213 15.3413 10.784 15.3093 10.336 15.352C9.88799 15.3733 9.50399 15.448 9.18399 15.576C8.77865 15.7467 8.50132 16.0347 8.35199 16.44C8.22399 16.8453 8.22399 17.2507 8.35199 17.656C8.50132 18.0613 8.77865 18.3493 9.18399 18.52Z" fill="#363A33"/>
<path d="M27.45 23.032C25.8713 23.0533 24.4847 22.7333 23.29 22.072C22.1167 21.3893 21.1887 20.472 20.506 19.32C19.8447 18.1467 19.4927 16.856 19.45 15.448C19.4287 13.9973 19.7593 12.7173 20.442 11.608C21.1247 10.4773 22.074 9.58133 23.29 8.91999C24.506 8.25866 25.8927 7.92799 27.45 7.92799C28.986 7.90666 30.3407 8.22666 31.514 8.88799C32.7087 9.54933 33.658 10.4453 34.362 11.576C35.066 12.7067 35.4393 13.9973 35.482 15.448C35.5033 16.8347 35.1727 18.104 34.49 19.256C33.8073 20.3867 32.858 21.2933 31.642 21.976C30.426 22.6373 29.0287 22.9893 27.45 23.032ZM27.546 18.36C28.122 18.36 28.6233 18.136 29.05 17.688C29.4767 17.24 29.69 16.7173 29.69 16.12C29.69 15.5227 29.4767 15.0107 29.05 14.584C28.6233 14.136 28.122 13.912 27.546 13.912C26.97 13.912 26.4687 14.136 26.042 14.584C25.6153 15.0107 25.402 15.5227 25.402 16.12C25.402 16.7173 25.6153 17.24 26.042 17.688C26.4687 18.136 26.97 18.36 27.546 18.36Z" fill="#363A33"/>
<path d="M44.034 23C42.498 23 41.2073 22.7867 40.162 22.36C39.1166 21.912 38.2527 21.336 37.57 20.632C36.9086 19.928 36.386 19.16 36.002 18.328C35.6393 17.496 35.3727 16.6747 35.202 15.864C35.0313 15.0533 34.9247 14.3173 34.882 13.656C34.8607 12.9947 34.85 12.504 34.85 12.184C34.85 11.2027 34.9033 10.1787 35.01 9.11199C35.1167 8.04533 35.2873 7.01066 35.522 6.00799C35.7566 4.98399 36.066 4.06666 36.45 3.25599C36.8553 2.44533 37.3353 1.79466 37.89 1.30399C38.4447 0.813326 39.106 0.567993 39.874 0.567993C40.5567 0.567993 41.1753 0.791993 41.73 1.23999C42.306 1.68799 42.594 2.38133 42.594 3.31999C42.594 4.23733 42.4447 5.14399 42.146 6.03999C41.8687 6.91466 41.6873 7.81066 41.602 8.72799C42.0927 8.45066 42.6153 8.25866 43.17 8.15199C43.7247 8.02399 44.2687 7.95999 44.802 7.95999C45.9327 7.95999 47.0207 8.22666 48.066 8.75999C49.1113 9.27199 49.9647 10.0613 50.626 11.128C51.3087 12.1947 51.65 13.56 51.65 15.224C51.65 16.5253 51.3407 17.7733 50.722 18.968C50.1247 20.1627 49.25 21.1333 48.098 21.88C46.9673 22.6267 45.6127 23 44.034 23ZM43.842 17.944C44.418 17.944 44.9193 17.7307 45.346 17.304C45.794 16.856 46.018 16.3333 46.018 15.736C46.018 15.1387 45.794 14.616 45.346 14.168C44.9193 13.72 44.418 13.496 43.842 13.496C43.266 13.496 42.7647 13.72 42.338 14.168C41.9113 14.616 41.698 15.1387 41.698 15.736C41.698 16.3333 41.9113 16.856 42.338 17.304C42.7647 17.7307 43.266 17.944 43.842 17.944Z" fill="#363A33"/>
<path d="M59.0312 23.032C57.4526 23.0533 56.0659 22.7333 54.8712 22.072C53.6979 21.3893 52.7699 20.472 52.0872 19.32C51.4259 18.1467 51.0739 16.856 51.0312 15.448C51.0099 13.9973 51.3406 12.7173 52.0232 11.608C52.7059 10.4773 53.6552 9.58133 54.8712 8.91999C56.0872 8.25866 57.4739 7.92799 59.0312 7.92799C60.5672 7.90666 61.9219 8.22666 63.0952 8.88799C64.2899 9.54933 65.2392 10.4453 65.9432 11.576C66.6472 12.7067 67.0206 13.9973 67.0632 15.448C67.0846 16.8347 66.7539 18.104 66.0712 19.256C65.3886 20.3867 64.4392 21.2933 63.2232 21.976C62.0072 22.6373 60.6099 22.9893 59.0312 23.032ZM59.1272 18.36C59.7032 18.36 60.2046 18.136 60.6312 17.688C61.0579 17.24 61.2712 16.7173 61.2712 16.12C61.2712 15.5227 61.0579 15.0107 60.6312 14.584C60.2046 14.136 59.7032 13.912 59.1272 13.912C58.5512 13.912 58.0499 14.136 57.6232 14.584C57.1966 15.0107 56.9832 15.5227 56.9832 16.12C56.9832 16.7173 57.1966 17.24 57.6232 17.688C58.0499 18.136 58.5512 18.36 59.1272 18.36Z" fill="#363A33"/>
</svg>
