<svg width="16" height="18" viewBox="0 0 16 18" fill="none" xmlns="http://www.w3.org/2000/svg">
<path d="M12.9095 9.57233C12.9275 8.16983 13.6625 6.87458 14.8573 6.14033C14.1005 5.05883 12.8773 4.39808 11.558 4.35683C10.1698 4.21133 8.82428 5.18708 8.11703 5.18708C7.39628 5.18708 6.30728 4.37108 5.13428 4.39508C3.59153 4.44533 2.18753 5.30108 1.43678 6.65033C-0.161474 9.41783 1.03028 13.4858 2.56178 15.7231C3.32828 16.8188 4.22303 18.0421 5.39528 17.9993C6.54203 17.9521 6.97028 17.2681 8.35403 17.2681C9.72503 17.2681 10.127 17.9993 11.3225 17.9716C12.5525 17.9513 13.328 16.8713 14.0675 15.7651C14.618 14.9843 15.0418 14.1218 15.3223 13.2091C13.8613 12.5911 12.911 11.1593 12.9095 9.57233Z" fill="white"/>
<path d="M10.6514 2.88525C11.3219 2.07975 11.6526 1.04475 11.5724 0C10.5479 0.108 9.60061 0.59775 8.92111 1.37175C8.24986 2.136 7.90936 3.135 7.97536 4.1505C9.01411 4.161 10.0004 3.6945 10.6514 2.88525Z" fill="white"/>
</svg>
