<svg width="16" height="18" viewBox="0 0 16 18" fill="none" xmlns="http://www.w3.org/2000/svg">
<path d="M12.9095 9.57227C12.9275 8.16977 13.6625 6.87452 14.8572 6.14027C14.1005 5.05877 12.8772 4.39802 11.558 4.35677C10.1697 4.21127 8.82422 5.18702 8.11697 5.18702C7.39622 5.18702 6.30722 4.37102 5.13422 4.39502C3.59147 4.44527 2.18747 5.30102 1.43672 6.65027C-0.161527 9.41777 1.03022 13.4858 2.56172 15.723C3.32822 16.8188 4.22297 18.042 5.39522 17.9993C6.54197 17.952 6.97022 17.268 8.35397 17.268C9.72497 17.268 10.127 17.9993 11.3225 17.9715C12.5525 17.9513 13.328 16.8713 14.0675 15.765C14.618 14.9843 15.0417 14.1218 15.3222 13.209C13.8612 12.591 12.911 11.1593 12.9095 9.57227Z" fill="black"/>
<path d="M10.6512 2.88525C11.3217 2.07975 11.6525 1.04475 11.5722 0C10.5477 0.108 9.60046 0.59775 8.92096 1.37175C8.24971 2.136 7.90921 3.135 7.97521 4.1505C9.01396 4.161 10.0002 3.6945 10.6512 2.88525Z" fill="black"/>
</svg>
