<svg width="24" height="24" viewBox="0 0 24 24" fill="none" xmlns="http://www.w3.org/2000/svg">
<path fill-rule="evenodd" clip-rule="evenodd" d="M19.6667 12C19.6667 15.682 16.682 18.6667 13 18.6667C10.2267 18.6667 7.84936 16.9733 6.84469 14.5647L5.61336 15.078C6.82003 17.968 9.67202 20 13 20C17.418 20 21 16.418 21 12C21 7.582 17.418 4 13 4C8.58202 4 5.00003 7.582 5.00003 12H6.33336C6.33336 8.318 9.31802 5.33333 13 5.33333C16.682 5.33333 19.6667 8.318 19.6667 12Z" fill="black"/>
<path fill-rule="evenodd" clip-rule="evenodd" d="M5.19534 13.138C5.32035 13.263 5.48989 13.3332 5.66667 13.3332C5.84344 13.3332 6.01298 13.263 6.138 13.138L8.138 11.138C8.19993 11.0761 8.24908 11.0026 8.28262 10.9217C8.31615 10.8409 8.33343 10.7542 8.33346 10.6666C8.33349 10.579 8.31628 10.4923 8.2828 10.4114C8.24931 10.3305 8.20022 10.257 8.13833 10.195C8.07643 10.1331 8.00294 10.0839 7.92205 10.0504C7.84117 10.0169 7.75446 9.99958 7.6669 9.99955C7.57933 9.99952 7.49262 10.0167 7.41171 10.0502C7.3308 10.0837 7.25727 10.1328 7.19533 10.1947L6.40333 11.0567H5.052L4.13867 10.1947C4.01358 10.0696 3.84391 9.99932 3.66701 9.99932C3.4901 9.99932 3.32043 10.0696 3.19534 10.1947C3.07025 10.3198 2.99997 10.4894 2.99997 10.6664C2.99997 10.8433 3.07025 11.0129 3.19534 11.138L5.19534 13.138ZM5.97467 14.2087C5.81143 14.2764 5.68175 14.4061 5.61412 14.5694C5.54649 14.7326 5.54645 14.9161 5.614 15.0794L6.846 14.5694C6.81248 14.4884 6.76336 14.4149 6.70143 14.353C6.63949 14.2911 6.56597 14.242 6.48505 14.2085C6.40414 14.175 6.31742 14.1578 6.22984 14.1578C6.14227 14.1578 6.05556 14.1751 5.97467 14.2087ZM12.76 12.6667C12.5832 12.6667 12.4136 12.5964 12.2886 12.4714C12.1636 12.3464 12.0933 12.1768 12.0933 12V7.33335C12.0933 7.15654 12.1636 6.98697 12.2886 6.86195C12.4136 6.73693 12.5832 6.66669 12.76 6.66669C12.9368 6.66669 13.1064 6.73693 13.2314 6.86195C13.3564 6.98697 13.4266 7.15654 13.4266 7.33335V12C13.4266 12.1768 13.3564 12.3464 13.2314 12.4714C13.1064 12.5964 12.9368 12.6667 12.76 12.6667Z" fill="black"/>
<path fill-rule="evenodd" clip-rule="evenodd" d="M16.8014 14.3347C16.713 14.4878 16.5674 14.5995 16.3966 14.6453C16.2258 14.6911 16.0439 14.6671 15.8908 14.5787L12.4268 12.5787C12.2749 12.4897 12.1644 12.3442 12.1194 12.174C12.0744 12.0038 12.0986 11.8227 12.1866 11.6702C12.2746 11.5178 12.4194 11.4063 12.5893 11.3602C12.7591 11.3141 12.9404 11.337 13.0934 11.424L16.5574 13.424C16.7105 13.5124 16.8223 13.6581 16.868 13.8288C16.9138 13.9996 16.8898 14.1816 16.8014 14.3347Z" fill="black"/>
</svg>
