<svg width="18" height="17" viewBox="0 0 18 17" fill="none" xmlns="http://www.w3.org/2000/svg">
<path d="M9 12.5001C10.3807 12.5001 11.5 11.3808 11.5 10.0001C11.5 8.61932 10.3807 7.50006 9 7.50006C7.61926 7.50006 6.5 8.61932 6.5 10.0001C6.5 11.3808 7.61926 12.5001 9 12.5001Z" fill="black"/>
<path fill-rule="evenodd" clip-rule="evenodd" d="M13.4806 3.19586C13.4924 3.44929 13.6869 3.65951 13.9387 3.691C17.5821 4.14677 18 5.63113 18 10.2501C18 16.4378 17.25 17.0001 9 17.0001C0.75 17.0001 0 16.4378 0 10.2501C0 5.63113 0.41791 4.14677 4.06133 3.691C4.31307 3.65951 4.50765 3.44929 4.51944 3.19586C4.6335 0.745527 5.34336 0.500061 9 0.500061C12.6566 0.500061 13.3665 0.745527 13.4806 3.19586ZM9 14.0001C11.2092 14.0001 13 12.2092 13 10.0001C13 7.79089 11.2092 6.00006 9 6.00006C6.79083 6.00006 5 7.79089 5 10.0001C5 12.2092 6.79083 14.0001 9 14.0001ZM15.5 7.00006C15.5 7.55235 15.0523 8.00006 14.5 8.00006C13.9477 8.00006 13.5 7.55235 13.5 7.00006C13.5 6.44778 13.9477 6.00006 14.5 6.00006C15.0523 6.00006 15.5 6.44778 15.5 7.00006Z" fill="black"/>
</svg>
