<svg width="18" height="18" viewBox="0 0 18 18" fill="none" xmlns="http://www.w3.org/2000/svg">
<path fill-rule="evenodd" clip-rule="evenodd" d="M18 9C18 13.9703 13.9703 18 9 18C4.02975 18 0 13.9703 0 9C0 4.02975 4.02975 0 9 0C13.9703 0 18 4.02975 18 9ZM7.995 9.15075C7.98491 9.10114 7.97988 9.05063 7.98 9V3.75C7.98 3.55109 8.05902 3.36032 8.19967 3.21967C8.34032 3.07902 8.53109 3 8.73 3C8.92891 3 9.11968 3.07902 9.26033 3.21967C9.40098 3.36032 9.48 3.55109 9.48 3.75V8.56875L13.002 10.602C13.1729 10.7022 13.2972 10.8658 13.3478 11.0573C13.3984 11.2488 13.3712 11.4525 13.2722 11.624C13.1732 11.7955 13.0103 11.9209 12.8192 11.9728C12.6281 12.0247 12.4242 11.9989 12.252 11.901L8.355 9.651C8.26292 9.59795 8.18319 9.5259 8.12112 9.43965C8.05905 9.35339 8.01606 9.25491 7.995 9.15075Z" fill="black"/>
</svg>
