<svg width="17" height="18" viewBox="0 0 17 18" fill="none" xmlns="http://www.w3.org/2000/svg">
<path d="M9.83981 9.6615C10.2628 10.086 10.4961 10.6493 10.4961 11.2493C10.4961 11.8492 10.2613 12.4155 9.83606 12.84C8.98856 13.6913 7.50581 13.6898 6.65531 12.84C6.23081 12.4155 5.99606 11.8507 5.99606 11.2493C5.99606 10.6477 6.23006 10.083 6.64706 9.66675L7.98806 8.3655C8.06081 8.29425 8.15531 8.259 8.24906 8.259C8.34281 8.259 8.43656 8.295 8.50931 8.3655L9.83981 9.6615ZM14.0796 15.5835C12.5211 17.1413 10.4488 18 8.24606 18C6.04331 18 3.97106 17.1413 2.41256 15.5835C-0.804188 12.366 -0.804188 7.1325 2.41256 3.91575L5.40656 1.14975C6.15881 0.414 7.17206 0 8.24606 0C9.32006 0 10.3333 0.414 11.1013 1.16475L14.0586 3.89625C17.2963 7.13325 17.2963 12.3667 14.0796 15.5835ZM11.9961 11.25C11.9961 10.248 11.6053 9.306 10.8973 8.59875L10.8906 8.592L9.55556 7.2915C8.82431 6.5805 7.67681 6.579 6.94331 7.29L5.59481 8.59875C4.88681 9.306 4.49606 10.248 4.49606 11.25C4.49606 12.252 4.88681 13.194 5.59481 13.9012C6.30281 14.6093 7.24481 15 8.24606 15C9.24731 15 10.1901 14.6093 10.8973 13.9012C11.6053 13.194 11.9961 12.252 11.9961 11.25Z" fill="black"/>
</svg>
