<svg width="6" height="6" viewBox="0 0 6 6" fill="none" xmlns="http://www.w3.org/2000/svg">
<path fill-rule="evenodd" clip-rule="evenodd" d="M5.78034 1.28033C6.07322 0.987442 6.07322 0.512555 5.78034 0.219667C5.48747 -0.0732223 5.01257 -0.0732223 4.71969 0.219667L3.00003 1.93934L1.28034 0.219667C0.987461 -0.0732223 0.512578 -0.0732223 0.219699 0.219667C-0.0732024 0.512555 -0.0732024 0.987442 0.219699 1.28033L1.93936 2.99999L0.219676 4.71969C-0.0732253 5.01257 -0.0732253 5.48747 0.219676 5.78034C0.512556 6.07322 0.987438 6.07322 1.28032 5.78034L3.00003 4.06066L4.71973 5.78034C5.0126 6.07322 5.48747 6.07322 5.78034 5.78034C6.07326 5.48747 6.07326 5.01257 5.78034 4.71969L4.06066 2.99999L5.78034 1.28033Z" fill="white"/>
</svg>
