<svg width="16" height="16" viewBox="0 0 16 16" fill="none" xmlns="http://www.w3.org/2000/svg">
<path d="M15.8624 5.95819C15.6439 5.23158 14.9883 4.6503 14.2599 4.57766L11.2005 4.14166L9.81654 1.23523C9.45233 0.435963 8.7967 0 7.99547 0C7.19419 0 6.53862 0.435963 6.1744 1.16257L4.7904 4.06902L1.73102 4.57766C1.0026 4.72294 0.347024 5.23158 0.128496 5.95819C-0.16287 6.75744 0.0556529 7.5567 0.638395 8.13803L2.8965 10.3905L2.3866 13.5876C2.24092 14.3868 2.60513 15.1861 3.26071 15.6221C3.62492 15.8401 3.98912 15.9854 4.42619 15.9854C4.7904 15.9854 5.08176 15.9127 5.37312 15.7674L8.14113 14.2415L10.9091 15.7674C11.5648 16.1307 12.366 16.058 13.0216 15.6221C13.6771 15.1861 14.0413 14.3868 13.8957 13.5876L13.3858 10.3905L15.6439 8.13803C15.9353 7.5567 16.1538 6.6848 15.8624 5.95819Z" fill="black"/>
</svg>
